<svg xmlns="http://www.w3.org/2000/svg" width="960" height="644" viewBox="0 0 960 644" role="img" aria-labelledby="chart-title chart-desc" font-family="Arial, Helvetica Neue, PingFang SC, Microsoft YaHei, sans-serif">
<title id="chart-title">Which LLM apps do you use most?</title>
<desc id="chart-desc">ChatGPT: 100; DeepSeek: 51; Doubao (豆包): 26; Gemini: 15; Claude: 12; Kimi: 8; Qwen (千问): 6; Tencent Yuanbao (腾讯元宝): 2; Zhipu Qingyan (智谱清言): 2; Codex (Other): 1; Minimax (Other): 1</desc>
<rect width="960" height="644" fill="#fbfbf9"/>
<text x="32" y="44" font-size="26" font-weight="700" fill="#202b38">Which LLM apps do you use most?</text>
<text x="32" y="72" font-size="17" fill="#566471">Lecture 01 survey · 114 responses · counted September 20, 2026</text>
<line x1="250.0" y1="88" x2="250.0" y2="580" stroke="#dce2e7" stroke-width="1"/>
<text x="250.0" y="604" font-size="15" fill="#566471" text-anchor="middle">0</text>
<line x1="281.0" y1="88" x2="281.0" y2="580" stroke="#dce2e7" stroke-width="1"/>
<text x="281.0" y="604" font-size="15" fill="#566471" text-anchor="middle">5</text>
<line x1="312.0" y1="88" x2="312.0" y2="580" stroke="#dce2e7" stroke-width="1"/>
<text x="312.0" y="604" font-size="15" fill="#566471" text-anchor="middle">10</text>
<line x1="343.0" y1="88" x2="343.0" y2="580" stroke="#dce2e7" stroke-width="1"/>
<text x="343.0" y="604" font-size="15" fill="#566471" text-anchor="middle">15</text>
<line x1="374.0" y1="88" x2="374.0" y2="580" stroke="#dce2e7" stroke-width="1"/>
<text x="374.0" y="604" font-size="15" fill="#566471" text-anchor="middle">20</text>
<line x1="405.0" y1="88" x2="405.0" y2="580" stroke="#dce2e7" stroke-width="1"/>
<text x="405.0" y="604" font-size="15" fill="#566471" text-anchor="middle">25</text>
<line x1="436.0" y1="88" x2="436.0" y2="580" stroke="#dce2e7" stroke-width="1"/>
<text x="436.0" y="604" font-size="15" fill="#566471" text-anchor="middle">30</text>
<line x1="467.0" y1="88" x2="467.0" y2="580" stroke="#dce2e7" stroke-width="1"/>
<text x="467.0" y="604" font-size="15" fill="#566471" text-anchor="middle">35</text>
<line x1="498.0" y1="88" x2="498.0" y2="580" stroke="#dce2e7" stroke-width="1"/>
<text x="498.0" y="604" font-size="15" fill="#566471" text-anchor="middle">40</text>
<line x1="529.0" y1="88" x2="529.0" y2="580" stroke="#dce2e7" stroke-width="1"/>
<text x="529.0" y="604" font-size="15" fill="#566471" text-anchor="middle">45</text>
<line x1="560.0" y1="88" x2="560.0" y2="580" stroke="#dce2e7" stroke-width="1"/>
<text x="560.0" y="604" font-size="15" fill="#566471" text-anchor="middle">50</text>
<line x1="591.0" y1="88" x2="591.0" y2="580" stroke="#dce2e7" stroke-width="1"/>
<text x="591.0" y="604" font-size="15" fill="#566471" text-anchor="middle">55</text>
<line x1="622.0" y1="88" x2="622.0" y2="580" stroke="#dce2e7" stroke-width="1"/>
<text x="622.0" y="604" font-size="15" fill="#566471" text-anchor="middle">60</text>
<line x1="653.0" y1="88" x2="653.0" y2="580" stroke="#dce2e7" stroke-width="1"/>
<text x="653.0" y="604" font-size="15" fill="#566471" text-anchor="middle">65</text>
<line x1="684.0" y1="88" x2="684.0" y2="580" stroke="#dce2e7" stroke-width="1"/>
<text x="684.0" y="604" font-size="15" fill="#566471" text-anchor="middle">70</text>
<line x1="715.0" y1="88" x2="715.0" y2="580" stroke="#dce2e7" stroke-width="1"/>
<text x="715.0" y="604" font-size="15" fill="#566471" text-anchor="middle">75</text>
<line x1="746.0" y1="88" x2="746.0" y2="580" stroke="#dce2e7" stroke-width="1"/>
<text x="746.0" y="604" font-size="15" fill="#566471" text-anchor="middle">80</text>
<line x1="777.0" y1="88" x2="777.0" y2="580" stroke="#dce2e7" stroke-width="1"/>
<text x="777.0" y="604" font-size="15" fill="#566471" text-anchor="middle">85</text>
<line x1="808.0" y1="88" x2="808.0" y2="580" stroke="#dce2e7" stroke-width="1"/>
<text x="808.0" y="604" font-size="15" fill="#566471" text-anchor="middle">90</text>
<line x1="839.0" y1="88" x2="839.0" y2="580" stroke="#dce2e7" stroke-width="1"/>
<text x="839.0" y="604" font-size="15" fill="#566471" text-anchor="middle">95</text>
<line x1="870.0" y1="88" x2="870.0" y2="580" stroke="#dce2e7" stroke-width="1"/>
<text x="870.0" y="604" font-size="15" fill="#566471" text-anchor="middle">100</text>
<text x="236" y="116.0" font-size="17" fill="#202b38" text-anchor="end">ChatGPT</text>
<rect x="250" y="96" width="620.0" height="28" rx="4" fill="#20578c"/>
<text x="880.0" y="116.0" font-size="16" fill="#202b38">100</text>
<text x="236" y="160.0" font-size="17" fill="#202b38" text-anchor="end">DeepSeek</text>
<rect x="250" y="140" width="316.2" height="28" rx="4" fill="#20578c"/>
<text x="576.2" y="160.0" font-size="16" fill="#202b38">51</text>
<text x="236" y="204.0" font-size="17" fill="#202b38" text-anchor="end">Doubao (豆包)</text>
<rect x="250" y="184" width="161.2" height="28" rx="4" fill="#20578c"/>
<text x="421.2" y="204.0" font-size="16" fill="#202b38">26</text>
<text x="236" y="248.0" font-size="17" fill="#202b38" text-anchor="end">Gemini</text>
<rect x="250" y="228" width="93.0" height="28" rx="4" fill="#20578c"/>
<text x="353.0" y="248.0" font-size="16" fill="#202b38">15</text>
<text x="236" y="292.0" font-size="17" fill="#202b38" text-anchor="end">Claude</text>
<rect x="250" y="272" width="74.4" height="28" rx="4" fill="#20578c"/>
<text x="334.4" y="292.0" font-size="16" fill="#202b38">12</text>
<text x="236" y="336.0" font-size="17" fill="#202b38" text-anchor="end">Kimi</text>
<rect x="250" y="316" width="49.6" height="28" rx="4" fill="#20578c"/>
<text x="309.6" y="336.0" font-size="16" fill="#202b38">8</text>
<text x="236" y="380.0" font-size="17" fill="#202b38" text-anchor="end">Qwen (千问)</text>
<rect x="250" y="360" width="37.2" height="28" rx="4" fill="#20578c"/>
<text x="297.2" y="380.0" font-size="16" fill="#202b38">6</text>
<text x="236" y="424.0" font-size="17" fill="#202b38" text-anchor="end">Tencent Yuanbao (腾讯元宝)</text>
<rect x="250" y="404" width="12.4" height="28" rx="4" fill="#20578c"/>
<text x="272.4" y="424.0" font-size="16" fill="#202b38">2</text>
<text x="236" y="468.0" font-size="17" fill="#202b38" text-anchor="end">Zhipu Qingyan (智谱清言)</text>
<rect x="250" y="448" width="12.4" height="28" rx="4" fill="#20578c"/>
<text x="272.4" y="468.0" font-size="16" fill="#202b38">2</text>
<text x="236" y="512.0" font-size="17" fill="#202b38" text-anchor="end">Codex (Other)</text>
<rect x="250" y="492" width="6.2" height="28" rx="4" fill="#20578c"/>
<text x="266.2" y="512.0" font-size="16" fill="#202b38">1</text>
<text x="236" y="556.0" font-size="17" fill="#202b38" text-anchor="end">Minimax (Other)</text>
<rect x="250" y="536" width="6.2" height="28" rx="4" fill="#20578c"/>
<text x="266.2" y="556.0" font-size="16" fill="#202b38">1</text>
<text x="560.0" y="632" font-size="15" fill="#566471" text-anchor="middle">Students who selected the app (multiple selections allowed)</text>
</svg>
