<svg xmlns="http://www.w3.org/2000/svg" width="960" height="644" viewBox="0 0 960 644" role="img" aria-labelledby="chart-title chart-desc" font-family="Arial, Helvetica Neue, PingFang SC, Microsoft YaHei, sans-serif">
<title id="chart-title">Which LLM apps do you use most?</title>
<desc id="chart-desc">ChatGPT: 90; DeepSeek: 44; Doubao (豆包): 23; Gemini: 13; Claude: 12; Qwen (千问): 6; Kimi: 6; Zhipu Qingyan (智谱清言): 2; Tencent Yuanbao (腾讯元宝): 1; Codex (Other): 1; Minimax (Other): 1</desc>
<rect width="960" height="644" fill="#fbfbf9"/>
<text x="32" y="44" font-size="26" font-weight="700" fill="#202b38">Which LLM apps do you use most?</text>
<text x="32" y="72" font-size="17" fill="#566471">Lecture 01 survey · 104 responses · counted September 20, 2026</text>
<line x1="250.0" y1="88" x2="250.0" y2="580" stroke="#dce2e7" stroke-width="1"/>
<text x="250.0" y="604" font-size="15" fill="#566471" text-anchor="middle">0</text>
<line x1="284.4" y1="88" x2="284.4" y2="580" stroke="#dce2e7" stroke-width="1"/>
<text x="284.4" y="604" font-size="15" fill="#566471" text-anchor="middle">5</text>
<line x1="318.9" y1="88" x2="318.9" y2="580" stroke="#dce2e7" stroke-width="1"/>
<text x="318.9" y="604" font-size="15" fill="#566471" text-anchor="middle">10</text>
<line x1="353.3" y1="88" x2="353.3" y2="580" stroke="#dce2e7" stroke-width="1"/>
<text x="353.3" y="604" font-size="15" fill="#566471" text-anchor="middle">15</text>
<line x1="387.8" y1="88" x2="387.8" y2="580" stroke="#dce2e7" stroke-width="1"/>
<text x="387.8" y="604" font-size="15" fill="#566471" text-anchor="middle">20</text>
<line x1="422.2" y1="88" x2="422.2" y2="580" stroke="#dce2e7" stroke-width="1"/>
<text x="422.2" y="604" font-size="15" fill="#566471" text-anchor="middle">25</text>
<line x1="456.7" y1="88" x2="456.7" y2="580" stroke="#dce2e7" stroke-width="1"/>
<text x="456.7" y="604" font-size="15" fill="#566471" text-anchor="middle">30</text>
<line x1="491.1" y1="88" x2="491.1" y2="580" stroke="#dce2e7" stroke-width="1"/>
<text x="491.1" y="604" font-size="15" fill="#566471" text-anchor="middle">35</text>
<line x1="525.6" y1="88" x2="525.6" y2="580" stroke="#dce2e7" stroke-width="1"/>
<text x="525.6" y="604" font-size="15" fill="#566471" text-anchor="middle">40</text>
<line x1="560.0" y1="88" x2="560.0" y2="580" stroke="#dce2e7" stroke-width="1"/>
<text x="560.0" y="604" font-size="15" fill="#566471" text-anchor="middle">45</text>
<line x1="594.4" y1="88" x2="594.4" y2="580" stroke="#dce2e7" stroke-width="1"/>
<text x="594.4" y="604" font-size="15" fill="#566471" text-anchor="middle">50</text>
<line x1="628.9" y1="88" x2="628.9" y2="580" stroke="#dce2e7" stroke-width="1"/>
<text x="628.9" y="604" font-size="15" fill="#566471" text-anchor="middle">55</text>
<line x1="663.3" y1="88" x2="663.3" y2="580" stroke="#dce2e7" stroke-width="1"/>
<text x="663.3" y="604" font-size="15" fill="#566471" text-anchor="middle">60</text>
<line x1="697.8" y1="88" x2="697.8" y2="580" stroke="#dce2e7" stroke-width="1"/>
<text x="697.8" y="604" font-size="15" fill="#566471" text-anchor="middle">65</text>
<line x1="732.2" y1="88" x2="732.2" y2="580" stroke="#dce2e7" stroke-width="1"/>
<text x="732.2" y="604" font-size="15" fill="#566471" text-anchor="middle">70</text>
<line x1="766.7" y1="88" x2="766.7" y2="580" stroke="#dce2e7" stroke-width="1"/>
<text x="766.7" y="604" font-size="15" fill="#566471" text-anchor="middle">75</text>
<line x1="801.1" y1="88" x2="801.1" y2="580" stroke="#dce2e7" stroke-width="1"/>
<text x="801.1" y="604" font-size="15" fill="#566471" text-anchor="middle">80</text>
<line x1="835.6" y1="88" x2="835.6" y2="580" stroke="#dce2e7" stroke-width="1"/>
<text x="835.6" y="604" font-size="15" fill="#566471" text-anchor="middle">85</text>
<line x1="870.0" y1="88" x2="870.0" y2="580" stroke="#dce2e7" stroke-width="1"/>
<text x="870.0" y="604" font-size="15" fill="#566471" text-anchor="middle">90</text>
<text x="236" y="116.0" font-size="17" fill="#202b38" text-anchor="end">ChatGPT</text>
<rect x="250" y="96" width="620.0" height="28" rx="4" fill="#20578c"/>
<text x="880.0" y="116.0" font-size="16" fill="#202b38">90</text>
<text x="236" y="160.0" font-size="17" fill="#202b38" text-anchor="end">DeepSeek</text>
<rect x="250" y="140" width="303.1" height="28" rx="4" fill="#20578c"/>
<text x="563.1" y="160.0" font-size="16" fill="#202b38">44</text>
<text x="236" y="204.0" font-size="17" fill="#202b38" text-anchor="end">Doubao (豆包)</text>
<rect x="250" y="184" width="158.4" height="28" rx="4" fill="#20578c"/>
<text x="418.4" y="204.0" font-size="16" fill="#202b38">23</text>
<text x="236" y="248.0" font-size="17" fill="#202b38" text-anchor="end">Gemini</text>
<rect x="250" y="228" width="89.6" height="28" rx="4" fill="#20578c"/>
<text x="349.6" y="248.0" font-size="16" fill="#202b38">13</text>
<text x="236" y="292.0" font-size="17" fill="#202b38" text-anchor="end">Claude</text>
<rect x="250" y="272" width="82.7" height="28" rx="4" fill="#20578c"/>
<text x="342.7" y="292.0" font-size="16" fill="#202b38">12</text>
<text x="236" y="336.0" font-size="17" fill="#202b38" text-anchor="end">Qwen (千问)</text>
<rect x="250" y="316" width="41.3" height="28" rx="4" fill="#20578c"/>
<text x="301.3" y="336.0" font-size="16" fill="#202b38">6</text>
<text x="236" y="380.0" font-size="17" fill="#202b38" text-anchor="end">Kimi</text>
<rect x="250" y="360" width="41.3" height="28" rx="4" fill="#20578c"/>
<text x="301.3" y="380.0" font-size="16" fill="#202b38">6</text>
<text x="236" y="424.0" font-size="17" fill="#202b38" text-anchor="end">Zhipu Qingyan (智谱清言)</text>
<rect x="250" y="404" width="13.8" height="28" rx="4" fill="#20578c"/>
<text x="273.8" y="424.0" font-size="16" fill="#202b38">2</text>
<text x="236" y="468.0" font-size="17" fill="#202b38" text-anchor="end">Tencent Yuanbao (腾讯元宝)</text>
<rect x="250" y="448" width="6.9" height="28" rx="4" fill="#20578c"/>
<text x="266.9" y="468.0" font-size="16" fill="#202b38">1</text>
<text x="236" y="512.0" font-size="17" fill="#202b38" text-anchor="end">Codex (Other)</text>
<rect x="250" y="492" width="6.9" height="28" rx="4" fill="#20578c"/>
<text x="266.9" y="512.0" font-size="16" fill="#202b38">1</text>
<text x="236" y="556.0" font-size="17" fill="#202b38" text-anchor="end">Minimax (Other)</text>
<rect x="250" y="536" width="6.9" height="28" rx="4" fill="#20578c"/>
<text x="266.9" y="556.0" font-size="16" fill="#202b38">1</text>
<text x="560.0" y="632" font-size="15" fill="#566471" text-anchor="middle">Students who selected the app (multiple selections allowed)</text>
</svg>
