<svg xmlns="http://www.w3.org/2000/svg" width="960" height="556" viewBox="0 0 960 556" role="img" aria-labelledby="chart-title chart-desc" font-family="Arial, Helvetica Neue, PingFang SC, Microsoft YaHei, sans-serif">
<title id="chart-title">Which LLM apps do you use most?</title>
<desc id="chart-desc">ChatGPT: 19; DeepSeek: 12; Gemini: 4; Doubao (豆包): 3; Claude: 2; Kimi: 1; Qwen (千问): 0; Tencent Yuanbao (腾讯元宝): 0; Zhipu Qingyan (智谱清言): 0</desc>
<rect width="960" height="556" fill="#fbfbf9"/>
<text x="32" y="44" font-size="26" font-weight="700" fill="#202b38">Which LLM apps do you use most?</text>
<text x="32" y="72" font-size="17" fill="#566471">Lecture 01 survey · 23 responses · counted September 11, 2026</text>
<line x1="250.0" y1="88" x2="250.0" y2="492" stroke="#dce2e7" stroke-width="1"/>
<text x="250.0" y="516" font-size="15" fill="#566471" text-anchor="middle">0</text>
<line x1="315.3" y1="88" x2="315.3" y2="492" stroke="#dce2e7" stroke-width="1"/>
<text x="315.3" y="516" font-size="15" fill="#566471" text-anchor="middle">2</text>
<line x1="380.5" y1="88" x2="380.5" y2="492" stroke="#dce2e7" stroke-width="1"/>
<text x="380.5" y="516" font-size="15" fill="#566471" text-anchor="middle">4</text>
<line x1="445.8" y1="88" x2="445.8" y2="492" stroke="#dce2e7" stroke-width="1"/>
<text x="445.8" y="516" font-size="15" fill="#566471" text-anchor="middle">6</text>
<line x1="511.1" y1="88" x2="511.1" y2="492" stroke="#dce2e7" stroke-width="1"/>
<text x="511.1" y="516" font-size="15" fill="#566471" text-anchor="middle">8</text>
<line x1="576.3" y1="88" x2="576.3" y2="492" stroke="#dce2e7" stroke-width="1"/>
<text x="576.3" y="516" font-size="15" fill="#566471" text-anchor="middle">10</text>
<line x1="641.6" y1="88" x2="641.6" y2="492" stroke="#dce2e7" stroke-width="1"/>
<text x="641.6" y="516" font-size="15" fill="#566471" text-anchor="middle">12</text>
<line x1="706.8" y1="88" x2="706.8" y2="492" stroke="#dce2e7" stroke-width="1"/>
<text x="706.8" y="516" font-size="15" fill="#566471" text-anchor="middle">14</text>
<line x1="772.1" y1="88" x2="772.1" y2="492" stroke="#dce2e7" stroke-width="1"/>
<text x="772.1" y="516" font-size="15" fill="#566471" text-anchor="middle">16</text>
<line x1="837.4" y1="88" x2="837.4" y2="492" stroke="#dce2e7" stroke-width="1"/>
<text x="837.4" y="516" font-size="15" fill="#566471" text-anchor="middle">18</text>
<text x="236" y="116.0" font-size="17" fill="#202b38" text-anchor="end">ChatGPT</text>
<rect x="250" y="96" width="620.0" height="28" rx="4" fill="#20578c"/>
<text x="880.0" y="116.0" font-size="16" fill="#202b38">19</text>
<text x="236" y="160.0" font-size="17" fill="#202b38" text-anchor="end">DeepSeek</text>
<rect x="250" y="140" width="391.6" height="28" rx="4" fill="#20578c"/>
<text x="651.6" y="160.0" font-size="16" fill="#202b38">12</text>
<text x="236" y="204.0" font-size="17" fill="#202b38" text-anchor="end">Gemini</text>
<rect x="250" y="184" width="130.5" height="28" rx="4" fill="#20578c"/>
<text x="390.5" y="204.0" font-size="16" fill="#202b38">4</text>
<text x="236" y="248.0" font-size="17" fill="#202b38" text-anchor="end">Doubao (豆包)</text>
<rect x="250" y="228" width="97.9" height="28" rx="4" fill="#20578c"/>
<text x="357.9" y="248.0" font-size="16" fill="#202b38">3</text>
<text x="236" y="292.0" font-size="17" fill="#202b38" text-anchor="end">Claude</text>
<rect x="250" y="272" width="65.3" height="28" rx="4" fill="#20578c"/>
<text x="325.3" y="292.0" font-size="16" fill="#202b38">2</text>
<text x="236" y="336.0" font-size="17" fill="#202b38" text-anchor="end">Kimi</text>
<rect x="250" y="316" width="32.6" height="28" rx="4" fill="#20578c"/>
<text x="292.6" y="336.0" font-size="16" fill="#202b38">1</text>
<text x="236" y="380.0" font-size="17" fill="#202b38" text-anchor="end">Qwen (千问)</text>
<text x="260.0" y="380.0" font-size="16" fill="#202b38">0</text>
<text x="236" y="424.0" font-size="17" fill="#202b38" text-anchor="end">Tencent Yuanbao (腾讯元宝)</text>
<text x="260.0" y="424.0" font-size="16" fill="#202b38">0</text>
<text x="236" y="468.0" font-size="17" fill="#202b38" text-anchor="end">Zhipu Qingyan (智谱清言)</text>
<text x="260.0" y="468.0" font-size="16" fill="#202b38">0</text>
<text x="560.0" y="544" font-size="15" fill="#566471" text-anchor="middle">Students who selected the app (at most two selections each)</text>
</svg>
