<svg version="1.1" xmlns="http://www.w3.org/2000/svg" viewBox="0 0 1152 410" width="1152" height="410"><!-- svg-source:excalidraw --><metadata/><defs><style class="style-fonts">
      </style></defs><g stroke-opacity="0" fill-opacity="0" stroke-linecap="round" transform="translate(0 0) rotate(0 576 205)"><path d="M0 0 C270.87 0, 541.75 0, 1152 0 M0 0 C437.81 0, 875.61 0, 1152 0 M1152 0 C1152 90.18, 1152 180.35, 1152 410 M1152 0 C1152 114.98, 1152 229.96, 1152 410 M1152 410 C762.44 410, 372.89 410, 0 410 M1152 410 C797.57 410, 443.15 410, 0 410 M0 410 C0 273.96, 0 137.92, 0 0 M0 410 C0 296.69, 0 183.37, 0 0" stroke="#fbfbf9" stroke-width="2" fill="none"/></g><g transform="translate(205 8) rotate(0 352.23388671875 16.674999999999997)"><text x="0" y="24.505566406249997" font-family="Helvetica, Segoe UI Emoji" font-size="29px" fill="#28673f" text-anchor="start" style="white-space: pre;" direction="ltr" dominant-baseline="alphabetic">Only token table E is reused by the vocabulary readout</text></g><g stroke-linecap="round"><g transform="translate(283 129.5) rotate(0 0 -32)"><path d="M0 0 C0 -15.01, 0 -30.03, 0 -64 M0 0 C0 -15.43, 0 -30.86, 0 -64" stroke="#28673f" stroke-width="3" fill="none"/></g><g transform="translate(283 129.5) rotate(0 0 -32)"><path d="M8.55 -40.51 C6.54 -46.02, 4.54 -51.53, 0 -64 M8.55 -40.51 C6.49 -46.17, 4.43 -51.84, 0 -64" stroke="#28673f" stroke-width="3" fill="none"/></g><g transform="translate(283 129.5) rotate(0 0 -32)"><path d="M-8.55 -40.51 C-6.54 -46.02, -4.54 -51.53, 0 -64 M-8.55 -40.51 C-6.49 -46.17, -4.43 -51.84, 0 -64" stroke="#28673f" stroke-width="3" fill="none"/></g></g><mask/><g stroke-linecap="round"><g transform="translate(283.5 65) rotate(0 377.5 0)"><path d="M0 0 C264.29 0, 528.59 0, 755 0 M0 0 C251.11 0, 502.22 0, 755 0" stroke="#28673f" stroke-width="3" fill="none"/></g><g transform="translate(283.5 65) rotate(0 377.5 0)"><path d="M731.51 8.55 C739.73 5.56, 747.95 2.56, 755 0 M731.51 8.55 C739.32 5.71, 747.13 2.86, 755 0" stroke="#28673f" stroke-width="3" fill="none"/></g><g transform="translate(283.5 65) rotate(0 377.5 0)"><path d="M731.51 -8.55 C739.73 -5.56, 747.95 -2.56, 755 0 M731.51 -8.55 C739.32 -5.71, 747.13 -2.86, 755 0" stroke="#28673f" stroke-width="3" fill="none"/></g></g><mask/><g stroke-linecap="round"><g transform="translate(1039 65.5) rotate(0 0 32)"><path d="M0 0 C0 25.55, 0 51.09, 0 64 M0 0 C0 17.94, 0 35.88, 0 64" stroke="#28673f" stroke-width="3" fill="none"/></g><g transform="translate(1039 65.5) rotate(0 0 32)"><path d="M-8.55 40.51 C-5.14 49.88, -1.72 59.26, 0 64 M-8.55 40.51 C-6.15 47.09, -3.76 53.68, 0 64" stroke="#28673f" stroke-width="3" fill="none"/></g><g transform="translate(1039 65.5) rotate(0 0 32)"><path d="M8.55 40.51 C5.14 49.88, 1.72 59.26, 0 64 M8.55 40.51 C6.15 47.09, 3.76 53.68, 0 64" stroke="#28673f" stroke-width="3" fill="none"/></g></g><mask/><g stroke-linecap="round" transform="translate(6 142) rotate(0 76 62.5)"><path d="M0 0 L152 0 L152 125 L0 125" stroke="none" stroke-width="0" fill="#e8f0f7"/><path d="M0 0 C57.09 0, 114.18 0, 152 0 M0 0 C51.55 0, 103.11 0, 152 0 M152 0 C152 26.32, 152 52.65, 152 125 M152 0 C152 34.73, 152 69.46, 152 125 M152 125 C113.7 125, 75.41 125, 0 125 M152 125 C96.2 125, 40.41 125, 0 125 M0 125 C0 88.33, 0 51.67, 0 0 M0 125 C0 87.77, 0 50.54, 0 0" stroke="#20578c" stroke-width="2" fill="none"/></g><g transform="translate(19 175) rotate(0 62.248046875 32.19999999999999)"><text x="0" y="23.660546874999998" font-family="Helvetica, Segoe UI Emoji" font-size="28px" fill="#142e4b" text-anchor="start" style="white-space: pre;" direction="ltr" dominant-baseline="alphabetic">Noa IDs</text><text x="0" y="55.860546875" font-family="Helvetica, Segoe UI Emoji" font-size="28px" fill="#142e4b" text-anchor="start" style="white-space: pre;" direction="ltr" dominant-baseline="alphabetic">(2, 10)</text></g><g stroke-linecap="round"><g transform="translate(167.5 204) rotate(0 11.5 0)"><path d="M0 0 C8.74 0, 17.48 0, 23 0 M0 0 C5.06 0, 10.12 0, 23 0" stroke="#20578c" stroke-width="3" fill="none"/></g><g transform="translate(167.5 204) rotate(0 11.5 0)"><path d="M12.19 3.93 C16.3 2.44, 20.41 0.94, 23 0 M12.19 3.93 C14.57 3.07, 16.95 2.2, 23 0" stroke="#20578c" stroke-width="3" fill="none"/></g><g transform="translate(167.5 204) rotate(0 11.5 0)"><path d="M12.19 -3.93 C16.3 -2.44, 20.41 -0.94, 23 0 M12.19 -3.93 C14.57 -3.07, 16.95 -2.2, 23 0" stroke="#20578c" stroke-width="3" fill="none"/></g></g><mask/><g stroke-linecap="round" transform="translate(200 142) rotate(0 83 62.5)"><path d="M0 0 L166 0 L166 125 L0 125" stroke="none" stroke-width="0" fill="#e8f0f7"/><path d="M0 0 C56.1 0, 112.21 0, 166 0 M0 0 C46.52 0, 93.04 0, 166 0 M166 0 C166 27.78, 166 55.56, 166 125 M166 0 C166 49.48, 166 98.95, 166 125 M166 125 C114.54 125, 63.07 125, 0 125 M166 125 C123.61 125, 81.23 125, 0 125 M0 125 C0 97.26, 0 69.53, 0 0 M0 125 C0 95.15, 0 65.3, 0 0" stroke="#20578c" stroke-width="2" fill="none"/></g><g transform="translate(218 172) rotate(0 51.18896484375 33.349999999999994)"><text x="0" y="24.505566406249997" font-family="Helvetica, Segoe UI Emoji" font-size="29px" fill="#142e4b" text-anchor="start" style="white-space: pre;" direction="ltr" dominant-baseline="alphabetic">Token +</text><text x="0" y="57.85556640624999" font-family="Helvetica, Segoe UI Emoji" font-size="29px" fill="#142e4b" text-anchor="start" style="white-space: pre;" direction="ltr" dominant-baseline="alphabetic">position</text></g><g stroke-linecap="round"><g transform="translate(375.5 204) rotate(0 12 0)"><path d="M0 0 C7.98 0, 15.96 0, 24 0 M0 0 C9 0, 18.01 0, 24 0" stroke="#20578c" stroke-width="3" fill="none"/></g><g transform="translate(375.5 204) rotate(0 12 0)"><path d="M12.72 4.1 C16.47 2.74, 20.22 1.37, 24 0 M12.72 4.1 C16.95 2.56, 21.18 1.02, 24 0" stroke="#20578c" stroke-width="3" fill="none"/></g><g transform="translate(375.5 204) rotate(0 12 0)"><path d="M12.72 -4.1 C16.47 -2.74, 20.22 -1.37, 24 0 M12.72 -4.1 C16.95 -2.56, 21.18 -1.02, 24 0" stroke="#20578c" stroke-width="3" fill="none"/></g></g><mask/><g stroke-linecap="round" transform="translate(410 142) rotate(0 83 62.5)"><path d="M0 0 L166 0 L166 125 L0 125" stroke="none" stroke-width="0" fill="#e8f0f7"/><path d="M0 0 C46.54 0, 93.08 0, 166 0 M0 0 C47.91 0, 95.82 0, 166 0 M166 0 C166 40.2, 166 80.39, 166 125 M166 0 C166 48.03, 166 96.06, 166 125 M166 125 C131.58 125, 97.15 125, 0 125 M166 125 C112.28 125, 58.57 125, 0 125 M0 125 C0 90.15, 0 55.3, 0 0 M0 125 C0 91.57, 0 58.13, 0 0" stroke="#20578c" stroke-width="2" fill="none"/></g><g transform="translate(430 172) rotate(0 54.806884765625 33.349999999999994)"><text x="0" y="24.505566406249997" font-family="Helvetica, Segoe UI Emoji" font-size="29px" fill="#142e4b" text-anchor="start" style="white-space: pre;" direction="ltr" dominant-baseline="alphabetic">Decoder</text><text x="0" y="57.85556640624999" font-family="Helvetica, Segoe UI Emoji" font-size="29px" fill="#142e4b" text-anchor="start" style="white-space: pre;" direction="ltr" dominant-baseline="alphabetic">block 1</text></g><g stroke-linecap="round"><g transform="translate(585.5 204) rotate(0 12 0)"><path d="M0 0 C6.24 0, 12.48 0, 24 0 M0 0 C9.5 0, 19 0, 24 0" stroke="#20578c" stroke-width="3" fill="none"/></g><g transform="translate(585.5 204) rotate(0 12 0)"><path d="M12.72 4.1 C15.66 3.04, 18.59 1.97, 24 0 M12.72 4.1 C17.19 2.48, 21.65 0.85, 24 0" stroke="#20578c" stroke-width="3" fill="none"/></g><g transform="translate(585.5 204) rotate(0 12 0)"><path d="M12.72 -4.1 C15.66 -3.04, 18.59 -1.97, 24 0 M12.72 -4.1 C17.19 -2.48, 21.65 -0.85, 24 0" stroke="#20578c" stroke-width="3" fill="none"/></g></g><mask/><g stroke-linecap="round" transform="translate(620 142) rotate(0 83 62.5)"><path d="M0 0 L166 0 L166 125 L0 125" stroke="none" stroke-width="0" fill="#e8f0f7"/><path d="M0 0 C36.51 0, 73.02 0, 166 0 M0 0 C46.55 0, 93.11 0, 166 0 M166 0 C166 42.27, 166 84.54, 166 125 M166 0 C166 38.46, 166 76.92, 166 125 M166 125 C110.92 125, 55.84 125, 0 125 M166 125 C120.12 125, 74.24 125, 0 125 M0 125 C0 92.5, 0 60.01, 0 0 M0 125 C0 83.03, 0 41.07, 0 0" stroke="#20578c" stroke-width="2" fill="none"/></g><g transform="translate(640 172) rotate(0 54.806884765625 33.349999999999994)"><text x="0" y="24.505566406249997" font-family="Helvetica, Segoe UI Emoji" font-size="29px" fill="#142e4b" text-anchor="start" style="white-space: pre;" direction="ltr" dominant-baseline="alphabetic">Decoder</text><text x="0" y="57.85556640624999" font-family="Helvetica, Segoe UI Emoji" font-size="29px" fill="#142e4b" text-anchor="start" style="white-space: pre;" direction="ltr" dominant-baseline="alphabetic">block 2</text></g><g stroke-linecap="round"><g transform="translate(795.5 204) rotate(0 12 0)"><path d="M0 0 C5.13 0, 10.26 0, 24 0 M0 0 C4.89 0, 9.78 0, 24 0" stroke="#20578c" stroke-width="3" fill="none"/></g><g transform="translate(795.5 204) rotate(0 12 0)"><path d="M12.72 4.1 C15.13 3.23, 17.54 2.35, 24 0 M12.72 4.1 C15.02 3.27, 17.32 2.43, 24 0" stroke="#20578c" stroke-width="3" fill="none"/></g><g transform="translate(795.5 204) rotate(0 12 0)"><path d="M12.72 -4.1 C15.13 -3.23, 17.54 -2.35, 24 0 M12.72 -4.1 C15.02 -3.27, 17.32 -2.43, 24 0" stroke="#20578c" stroke-width="3" fill="none"/></g></g><mask/><g stroke-linecap="round" transform="translate(830 142) rotate(0 68.5 62.5)"><path d="M0 0 L137 0 L137 125 L0 125" stroke="none" stroke-width="0" fill="#e8f0f7"/><path d="M0 0 C51.4 0, 102.8 0, 137 0 M0 0 C33.37 0, 66.74 0, 137 0 M137 0 C137 27, 137 54, 137 125 M137 0 C137 31.11, 137 62.22, 137 125 M137 125 C99.56 125, 62.11 125, 0 125 M137 125 C83.13 125, 29.25 125, 0 125 M0 125 C0 76.42, 0 27.84, 0 0 M0 125 C0 86.96, 0 48.92, 0 0" stroke="#20578c" stroke-width="2" fill="none"/></g><g transform="translate(864 172) rotate(0 33.03564453125 33.349999999999994)"><text x="0" y="24.505566406249997" font-family="Helvetica, Segoe UI Emoji" font-size="29px" fill="#142e4b" text-anchor="start" style="white-space: pre;" direction="ltr" dominant-baseline="alphabetic">Final</text><text x="0" y="57.85556640624999" font-family="Helvetica, Segoe UI Emoji" font-size="29px" fill="#142e4b" text-anchor="start" style="white-space: pre;" direction="ltr" dominant-baseline="alphabetic">norm</text></g><g stroke-linecap="round"><g transform="translate(976.5 204) rotate(0 8.5 0)"><path d="M0 0 C3.58 0, 7.16 0, 17 0 M0 0 C4.72 0, 9.45 0, 17 0" stroke="#20578c" stroke-width="3" fill="none"/></g><g transform="translate(976.5 204) rotate(0 8.5 0)"><path d="M9.01 2.91 C10.69 2.29, 12.38 1.68, 17 0 M9.01 2.91 C11.23 2.1, 13.45 1.29, 17 0" stroke="#20578c" stroke-width="3" fill="none"/></g><g transform="translate(976.5 204) rotate(0 8.5 0)"><path d="M9.01 -2.91 C10.69 -2.29, 12.38 -1.68, 17 0 M9.01 -2.91 C11.23 -2.1, 13.45 -1.29, 17 0" stroke="#20578c" stroke-width="3" fill="none"/></g></g><mask/><g stroke-linecap="round" transform="translate(1004 142) rotate(0 70.5 62.5)"><path d="M0 0 L141 0 L141 125 L0 125" stroke="none" stroke-width="0" fill="#eaf3ed"/><path d="M0 0 C55.81 0, 111.63 0, 141 0 M0 0 C55.51 0, 111.03 0, 141 0 M141 0 C141 31.32, 141 62.63, 141 125 M141 0 C141 45.37, 141 90.75, 141 125 M141 125 C98.91 125, 56.82 125, 0 125 M141 125 C110.78 125, 80.56 125, 0 125 M0 125 C0 95.71, 0 66.42, 0 0 M0 125 C0 85.1, 0 45.2, 0 0" stroke="#28673f" stroke-width="2" fill="none"/></g><g transform="translate(1021 172) rotate(0 49.17822265625 33.349999999999994)"><text x="0" y="24.505566406249997" font-family="Helvetica, Segoe UI Emoji" font-size="29px" fill="#28673f" text-anchor="start" style="white-space: pre;" direction="ltr" dominant-baseline="alphabetic">Tied</text><text x="0" y="57.85556640624999" font-family="Helvetica, Segoe UI Emoji" font-size="29px" fill="#28673f" text-anchor="start" style="white-space: pre;" direction="ltr" dominant-baseline="alphabetic">readout</text></g><g transform="translate(257 326) rotate(0 201.890625 18.400000000000006)"><text x="0" y="27.040625" font-family="Helvetica, Segoe UI Emoji" font-size="32px" fill="#142e4b" text-anchor="start" style="white-space: pre;" direction="ltr" dominant-baseline="alphabetic">States keep shape (2, 10, 16)</text></g><g transform="translate(977 316) rotate(0 50.757080078125 33.349999999999994)"><text x="0" y="24.505566406249997" font-family="Helvetica, Segoe UI Emoji" font-size="29px" fill="#28673f" text-anchor="start" style="white-space: pre;" direction="ltr" dominant-baseline="alphabetic">Logits</text><text x="0" y="57.85556640624999" font-family="Helvetica, Segoe UI Emoji" font-size="29px" fill="#28673f" text-anchor="start" style="white-space: pre;" direction="ltr" dominant-baseline="alphabetic">(2, 10, 12)</text></g></svg>
